HIERARCHY
ROOT Pelvis
{
	OFFSET 0.000000 0.000000 0.000000
	CHANNELS 6 Xposition Yposition Zposition Xrotation Yrotation Zrotation
	JOINT LeftUpLeg_virtual
	{
		OFFSET 0.000000 0.000000 0.000000
		CHANNELS 3 Xrotation Yrotation Zrotation
		JOINT LeftUpLeg
		{
			OFFSET 18.735201 -5.666702 -4.541200
			CHANNELS 3 Xrotation Yrotation Zrotation
			JOINT LeftLeg
			{
				OFFSET -0.021200 -31.938179 0.493100
				CHANNELS 3 Xrotation Yrotation Zrotation
				JOINT LeftFoot
				{
					OFFSET 0.021200 -31.938179 -4.336299
					CHANNELS 3 Xrotation Yrotation Zrotation
					JOINT LeftToeBase
					{
						OFFSET 0.943001 -26.722000 15.023500
						CHANNELS 3 Xrotation Yrotation Zrotation
						End Site
						{
							OFFSET 0 0 0
						}
					}
				}
			}
		}
	}
	JOINT RightUpLeg_virtual
	{
		OFFSET 0.000000 0.000000 0.000000
		CHANNELS 3 Xrotation Yrotation Zrotation
		JOINT RightUpLeg
		{
			OFFSET -18.735201 -5.666702 -4.541200
			CHANNELS 3 Xrotation Yrotation Zrotation
			JOINT RightLeg
			{
				OFFSET 0.018946 -31.938133 0.493100
				CHANNELS 3 Xrotation Yrotation Zrotation
				JOINT RightFoot
				{
					OFFSET -0.018946 -31.938126 -4.336299
					CHANNELS 3 Xrotation Yrotation Zrotation
					JOINT RightToeBase
					{
						OFFSET -0.943001 -26.722004 15.023500
						CHANNELS 3 Xrotation Yrotation Zrotation
						End Site
						{
							OFFSET 0 0 0
						}
					}
				}
			}
		}
	}
	JOINT Hips_virtual
	{
		OFFSET 0.000000 0.000000 0.000000
		CHANNELS 3 Xrotation Yrotation Zrotation
		JOINT Hips
		{
			OFFSET -0.000000 -0.000000 -0.000000
			CHANNELS 3 Xrotation Yrotation Zrotation
			JOINT Spine
			{
				OFFSET 0.000000 10.199997 -0.299500
				CHANNELS 3 Xrotation Yrotation Zrotation
				JOINT Spine1
				{
					OFFSET 0.000000 11.900002 -1.516600
					CHANNELS 3 Xrotation Yrotation Zrotation
					JOINT Spine2
					{
						OFFSET 0.000000 13.600006 -2.842500
						CHANNELS 3 Xrotation Yrotation Zrotation
						JOINT Neck_virtual
						{
							OFFSET 0.000000 0.000000 0.000000
							CHANNELS 3 Xrotation Yrotation Zrotation
							JOINT Neck
							{
								OFFSET 0.000000 9.624100 -2.890100
								CHANNELS 3 Xrotation Yrotation Zrotation
								JOINT Head
								{
									OFFSET 0.000000 14.068802 -1.351900
									CHANNELS 3 Xrotation Yrotation Zrotation
									End Site
									{
										OFFSET 0 0 0
									}
								}
							}
						}
						JOINT LeftShoulder_virtual
						{
							OFFSET 0.000000 0.000000 0.000000
							CHANNELS 3 Xrotation Yrotation Zrotation
							JOINT LeftShoulder
							{
								OFFSET 15.263000 10.923401 -0.547700
								CHANNELS 3 Xrotation Yrotation Zrotation
								JOINT LeftArm
								{
									OFFSET 25.438599 -2.830597 -13.032500
									CHANNELS 3 Xrotation Yrotation Zrotation
									JOINT LeftForeArm
									{
										OFFSET 29.960503 0.000000 0.000000
										CHANNELS 3 Xrotation Yrotation Zrotation
										JOINT LeftHand
										{
											OFFSET 27.849251 0.000000 0.000000
											CHANNELS 3 Xrotation Yrotation Zrotation
											End Site
											{
												OFFSET 0 0 0
											}
										}
									}
								}
							}
						}
						JOINT RightShoulder_virtual
						{
							OFFSET 0.000000 0.000000 0.000000
							CHANNELS 3 Xrotation Yrotation Zrotation
							JOINT RightShoulder
							{
								OFFSET -15.263000 10.923401 -0.547700
								CHANNELS 3 Xrotation Yrotation Zrotation
								JOINT RightArm
								{
									OFFSET -25.438599 -2.830597 -13.032500
									CHANNELS 3 Xrotation Yrotation Zrotation
									JOINT RightForeArm
									{
										OFFSET -29.960503 0.000000 0.000000
										CHANNELS 3 Xrotation Yrotation Zrotation
										JOINT RightHand
										{
											OFFSET -27.849251 0.000000 0.000000
											CHANNELS 3 Xrotation Yrotation Zrotation
											End Site
											{
												OFFSET 0 0 0
											}
										}
									}
								}
							}
						}
					}
				}
			}
		}
	}
}
MOTION
Frames: 6
Frame Time: 0.03333333
-6.804633 -4.554451 33.074814 0.000000 0.000000 0.000000 86.298860 5.083356 5.154493 -12.272264 32.612856 11.994165 28.220363 -15.212872 5.882766 31.541510 34.285890 12.603585 0.000000 0.000000 0.000000 86.601690 5.593996 4.361362 -1.325310 -2.878029 -19.736417 13.118373 -31.793294 4.365831 61.790392 4.546252 17.938945 0.000000 0.000000 0.000000 84.329060 5.535795 5.586156 -0.856087 -0.237472 -0.072634 7.471679 -9.478967 -2.528062 1.186166 -5.152302 0.639127 0.000000 0.000000 0.000000 -0.964984 -0.342872 -0.850285 5.615422 -6.920534 2.705621 0.000000 0.000000 0.000000 1.994703 -0.962626 1.389237 -0.136728 -23.297832 -8.422877 23.617025 -11.126254 -50.393259 -0.958111 -43.554433 -10.402812 0.000000 0.000000 0.000000 -0.726529 -0.084616 -1.307719 -2.325193 27.267160 4.990653 23.224282 -31.047363 71.243593 21.794589 60.672932 -18.789073 0.000000 0.000000 0.000000 
-6.806722 -4.552948 33.075611 0.000000 0.000000 0.000000 86.301237 5.085146 5.153453 -12.271754 32.613808 11.995172 28.226079 -15.209009 5.883219 31.539635 34.281068 12.601718 0.000000 0.000000 0.000000 86.605180 5.595968 4.359626 -1.323609 -2.881035 -19.732628 13.120377 -31.799667 4.364822 61.792735 4.548760 17.939261 0.000000 0.000000 0.000000 84.328958 5.530262 5.591955 -0.856076 -0.237539 -0.072667 7.468485 -9.474108 -2.514303 1.192001 -5.151850 0.638841 0.000000 0.000000 0.000000 -0.977931 -0.343444 -0.851917 5.615281 -6.918967 2.706142 0.000000 0.000000 0.000000 1.994187 -0.960593 1.398708 -0.139150 -23.308034 -8.422996 23.626183 -11.139885 -50.389693 -0.971146 -43.533396 -10.401936 0.000000 0.000000 0.000000 -0.706819 -0.086429 -1.317801 -2.333730 27.264734 4.986353 23.210894 -31.050743 71.213096 21.787054 60.667960 -18.786357 0.000000 0.000000 0.000000 
-6.810044 -4.549637 33.074776 0.000000 0.000000 0.000000 86.305929 5.089090 5.152217 -12.279481 32.608232 11.996285 28.238913 -15.194502 5.883522 31.523956 34.278185 12.603297 0.000000 0.000000 0.000000 86.609852 5.599619 4.359057 -1.313584 -2.879829 -19.728706 13.116475 -31.810889 4.356471 61.797489 4.558426 17.948094 0.000000 0.000000 0.000000 84.325604 5.529306 5.596085 -0.856336 -0.238003 -0.072538 7.471208 -9.463851 -2.489144 1.203165 -5.152601 0.633609 0.000000 0.000000 0.000000 -0.992634 -0.345917 -0.856291 5.617268 -6.916627 2.706939 0.000000 0.000000 0.000000 1.997397 -0.959739 1.409132 -0.140500 -23.320260 -8.429236 23.617052 -11.161287 -50.377645 -0.983338 -43.484379 -10.393127 0.000000 0.000000 0.000000 -0.689315 -0.091261 -1.329980 -2.345804 27.271726 4.997910 23.217684 -31.084030 71.187653 21.790696 60.690226 -18.799483 0.000000 0.000000 0.000000 
-6.815072 -4.545326 33.072830 0.000000 0.000000 0.000000 86.314016 5.095482 5.150868 -12.294399 32.597033 11.998797 28.254712 -15.171462 5.883247 31.506085 34.276290 12.601743 0.000000 0.000000 0.000000 86.615091 5.605863 4.358906 -1.301421 -2.873823 -19.726683 13.117887 -31.823921 4.347770 61.811709 4.579362 17.964320 0.000000 0.000000 0.000000 84.320960 5.533915 5.596236 -0.856836 -0.238794 -0.072254 7.481396 -9.450193 -2.458476 1.217570 -5.155069 0.624802 0.000000 0.000000 0.000000 -1.007240 -0.350878 -0.862066 5.621234 -6.913994 2.708548 0.000000 0.000000 0.000000 2.003917 -0.962082 1.418880 -0.140345 -23.338020 -8.438373 23.585135 -11.189053 -50.357465 -0.995715 -43.427903 -10.379600 0.000000 0.000000 0.000000 -0.672542 -0.099451 -1.341257 -2.361482 27.283177 5.024808 23.246148 -31.150560 71.174410 21.805247 60.733673 -18.829370 0.000000 0.000000 0.000000 
-6.821412 -4.540070 33.071651 0.000000 0.000000 0.000000 86.325299 5.104875 5.149165 -12.316299 32.584199 12.003485 28.273454 -15.140089 5.881482 31.500412 34.277393 12.590290 0.000000 0.000000 0.000000 86.620500 5.615756 4.358625 -1.293131 -2.865770 -19.729170 13.134981 -31.838397 4.345641 61.836476 4.607007 17.980331 0.000000 0.000000 0.000000 84.317442 5.544475 5.591745 -0.857694 -0.239877 -0.071728 7.499221 -9.436288 -2.429525 1.234558 -5.159775 0.615907 0.000000 0.000000 0.000000 -1.018760 -0.359905 -0.867321 5.625769 -6.911992 2.711908 0.000000 0.000000 0.000000 2.013124 -0.968288 1.427097 -0.138084 -23.364783 -8.446582 23.535003 -11.215215 -50.332067 -1.009045 -43.378508 -10.364645 0.000000 0.000000 0.000000 -0.656043 -0.110800 -1.349786 -2.379332 27.295285 5.059500 23.289750 -31.254112 71.168215 21.831747 60.790664 -18.877198 0.000000 0.000000 0.000000 
-6.828515 -4.534874 33.069485 0.000000 0.000000 0.000000 86.338297 5.118303 5.146623 -12.343894 32.572954 12.009269 28.294173 -15.100461 5.877878 31.506884 34.281700 12.566793 0.000000 0.000000 0.000000 86.627139 5.630186 4.357645 -1.291180 -2.855782 -19.735422 13.169726 -31.854933 4.352265 61.867369 4.634355 17.988690 0.000000 0.000000 0.000000 84.319081 5.561262 5.583555 -0.858576 -0.240917 -0.071592 7.521961 -9.423469 -2.409868 1.253058 -5.165618 0.609689 0.000000 0.000000 0.000000 -1.025381 -0.372391 -0.870686 5.630222 -6.910375 2.718054 0.000000 0.000000 0.000000 2.023414 -0.977911 1.433503 -0.132001 -23.402397 -8.446433 23.468998 -11.235961 -50.303448 -1.020344 -43.342041 -10.348007 0.000000 0.000000 0.000000 -0.637973 -0.124197 -1.354139 -2.396606 27.305901 5.093261 23.347439 -31.397338 71.161350 21.875115 60.851180 -18.945743 0.000000 0.000000 0.000000 
